<svg xmlns="http://www.w3.org/2000/svg" viewBox="0 0 32 32">
  <rect width="32" height="32" rx="7" fill="#1c1c1e"/>
  <!-- Apple logo (SimpleIcons path, scaled/translated to fit ~18px centered) -->
  <g transform="translate(7, 5) scale(0.75)">
    <path fill="white" d="M12.152 6.896c-.948 0-2.415-1.078-3.96-1.04-2.04.027-3.91 1.183-4.961 3.014-2.117 3.675-.54 9.103 1.519 12.09 1.013 1.454 2.208 3.09 3.792 3.029 1.52-.065 2.09-.987 3.925-.987 1.831 0 2.35.987 3.96.948 1.637-.026 2.676-1.48 3.676-2.948 1.156-1.688 1.636-3.325 1.662-3.415-.039-.013-3.182-1.221-3.22-4.857-.026-3.04 2.48-4.494 2.597-4.559-1.429-2.09-3.623-2.324-4.39-2.376-2-.156-3.675 1.09-4.61 1.09zM15.53 3.83c.987-1.17 1.662-2.806 1.48-4.43-1.43.058-3.156.978-4.17 2.13-.91 1.065-1.714 2.766-1.496 4.39 1.597.13 3.221-.81 4.187-2.09"/>
  </g>
</svg>
